<svg id="visual"  width="1960" height="1080" xmlns="http://www.w3.org/2000/svg" xmlns:xlink="http://www.w3.org/1999/xlink" version="1.1"><rect x="0" y="0" width="1960" height="1080" fill="#ffffff"></rect><defs><linearGradient id="grad1_0" x1="44.9%" y1="0%" x2="100%" y2="100%"><stop offset="13.703703703703702%" stop-color="#ffffff" stop-opacity="1"></stop><stop offset="86.2962962962963%" stop-color="#ffffff" stop-opacity="1"></stop></linearGradient></defs><defs><linearGradient id="grad2_0" x1="0%" y1="0%" x2="55.1%" y2="100%"><stop offset="13.703703703703702%" stop-color="#ffffff" stop-opacity="1"></stop><stop offset="86.2962962962963%" stop-color="#ffffff" stop-opacity="1"></stop></linearGradient></defs><g transform="translate(1960, 0)"><path d="M0 486C-65.4 482.2 -130.8 478.4 -186 449C-241.2 419.6 -286.2 364.7 -310.4 310.4C-334.7 256.1 -338.2 202.4 -364 150.8C-389.8 99.1 -437.9 49.6 -486 0L0 0Z" fill="#1565c0"></path></g><g transform="translate(0, 1080)"><path d="M0 -486C62.7 -463.8 125.5 -441.7 167.6 -404.7C209.8 -367.7 231.3 -315.8 281.4 -281.4C331.5 -247 410.2 -230 449 -186C487.9 -142 486.9 -71 486 0L0 0Z" fill="#1565c0"></path></g></svg>