<svg id="visual" viewBox="0 0 1960 1080" width="1960" height="1080" xmlns="http://www.w3.org/2000/svg" xmlns:xlink="http://www.w3.org/1999/xlink" version="1.1"><rect x="0" y="0" width="1960" height="1080" fill="#FEFEFE"></rect><defs><linearGradient id="grad1_0" x1="44.9%" y1="0%" x2="100%" y2="100%"><stop offset="13.703703703703702%" stop-color="#1565c0" stop-opacity="1"></stop><stop offset="86.2962962962963%" stop-color="#1565c0" stop-opacity="1"></stop></linearGradient></defs><defs><linearGradient id="grad1_1" x1="44.9%" y1="0%" x2="100%" y2="100%"><stop offset="13.703703703703702%" stop-color="#1565c0" stop-opacity="1"></stop><stop offset="86.2962962962963%" stop-color="#5d81cd" stop-opacity="1"></stop></linearGradient></defs><defs><linearGradient id="grad1_2" x1="44.9%" y1="0%" x2="100%" y2="100%"><stop offset="13.703703703703702%" stop-color="#8a9eda" stop-opacity="1"></stop><stop offset="86.2962962962963%" stop-color="#5d81cd" stop-opacity="1"></stop></linearGradient></defs><defs><linearGradient id="grad1_3" x1="44.9%" y1="0%" x2="100%" y2="100%"><stop offset="13.703703703703702%" stop-color="#8a9eda" stop-opacity="1"></stop><stop offset="86.2962962962963%" stop-color="#b2bde6" stop-opacity="1"></stop></linearGradient></defs><defs><linearGradient id="grad1_4" x1="44.9%" y1="0%" x2="100%" y2="100%"><stop offset="13.703703703703702%" stop-color="#d8ddf2" stop-opacity="1"></stop><stop offset="86.2962962962963%" stop-color="#b2bde6" stop-opacity="1"></stop></linearGradient></defs><defs><linearGradient id="grad1_5" x1="44.9%" y1="0%" x2="100%" y2="100%"><stop offset="13.703703703703702%" stop-color="#d8ddf2" stop-opacity="1"></stop><stop offset="86.2962962962963%" stop-color="#fefefe" stop-opacity="1"></stop></linearGradient></defs><defs><linearGradient id="grad2_0" x1="0%" y1="0%" x2="55.1%" y2="100%"><stop offset="13.703703703703702%" stop-color="#1565c0" stop-opacity="1"></stop><stop offset="86.2962962962963%" stop-color="#1565c0" stop-opacity="1"></stop></linearGradient></defs><defs><linearGradient id="grad2_1" x1="0%" y1="0%" x2="55.1%" y2="100%"><stop offset="13.703703703703702%" stop-color="#5d81cd" stop-opacity="1"></stop><stop offset="86.2962962962963%" stop-color="#1565c0" stop-opacity="1"></stop></linearGradient></defs><defs><linearGradient id="grad2_2" x1="0%" y1="0%" x2="55.1%" y2="100%"><stop offset="13.703703703703702%" stop-color="#5d81cd" stop-opacity="1"></stop><stop offset="86.2962962962963%" stop-color="#8a9eda" stop-opacity="1"></stop></linearGradient></defs><defs><linearGradient id="grad2_3" x1="0%" y1="0%" x2="55.1%" y2="100%"><stop offset="13.703703703703702%" stop-color="#b2bde6" stop-opacity="1"></stop><stop offset="86.2962962962963%" stop-color="#8a9eda" stop-opacity="1"></stop></linearGradient></defs><defs><linearGradient id="grad2_4" x1="0%" y1="0%" x2="55.1%" y2="100%"><stop offset="13.703703703703702%" stop-color="#b2bde6" stop-opacity="1"></stop><stop offset="86.2962962962963%" stop-color="#d8ddf2" stop-opacity="1"></stop></linearGradient></defs><defs><linearGradient id="grad2_5" x1="0%" y1="0%" x2="55.1%" y2="100%"><stop offset="13.703703703703702%" stop-color="#fefefe" stop-opacity="1"></stop><stop offset="86.2962962962963%" stop-color="#d8ddf2" stop-opacity="1"></stop></linearGradient></defs><g transform="translate(1960, 0)"><path d="M0 594C-58.7 501.3 -117.5 408.6 -214 370.7C-310.5 332.7 -444.8 349.6 -514.4 297C-584 244.4 -589 122.2 -594 0L0 0Z" fill="#ebedf8"></path><path d="M0 495C-49 417.7 -97.9 340.5 -178.3 308.9C-258.8 277.3 -370.7 291.4 -428.7 247.5C-486.7 203.6 -490.9 101.8 -495 0L0 0Z" fill="#c5cdec"></path><path d="M0 396C-39.2 334.2 -78.3 272.4 -142.7 247.1C-207 221.8 -296.5 233.1 -342.9 198C-389.4 162.9 -392.7 81.5 -396 0L0 0Z" fill="#9eaee0"></path><path d="M0 297C-29.4 250.6 -58.7 204.3 -107 185.3C-155.3 166.4 -222.4 174.8 -257.2 148.5C-292 122.2 -294.5 61.1 -297 0L0 0Z" fill="#758fd3"></path><path d="M0 198C-19.6 167.1 -39.2 136.2 -71.3 123.6C-103.5 110.9 -148.3 116.5 -171.5 99C-194.7 81.5 -196.3 40.7 -198 0L0 0Z" fill="#4273c6"></path><path d="M0 99C-9.8 83.5 -19.6 68.1 -35.7 61.8C-51.8 55.5 -74.1 58.3 -85.7 49.5C-97.3 40.7 -98.2 20.4 -99 0L0 0Z" fill="#1565c0"></path></g><g transform="translate(0, 1080)"><path d="M0 -594C119.9 -587.7 239.7 -581.4 297 -514.4C354.3 -447.5 348.9 -319.8 388 -224C427 -128.2 510.5 -64.1 594 0L0 0Z" fill="#ebedf8"></path><path d="M0 -495C99.9 -489.7 199.8 -484.5 247.5 -428.7C295.2 -372.9 290.8 -266.5 323.3 -186.7C355.9 -106.8 425.4 -53.4 495 0L0 0Z" fill="#c5cdec"></path><path d="M0 -396C79.9 -391.8 159.8 -387.6 198 -342.9C236.2 -298.3 232.6 -213.2 258.7 -149.3C284.7 -85.4 340.3 -42.7 396 0L0 0Z" fill="#9eaee0"></path><path d="M0 -297C59.9 -293.8 119.9 -290.7 148.5 -257.2C177.1 -223.7 174.5 -159.9 194 -112C213.5 -64.1 255.3 -32 297 0L0 0Z" fill="#758fd3"></path><path d="M0 -198C40 -195.9 79.9 -193.8 99 -171.5C118.1 -149.2 116.3 -106.6 129.3 -74.7C142.3 -42.7 170.2 -21.4 198 0L0 0Z" fill="#4273c6"></path><path d="M0 -99C20 -97.9 40 -96.9 49.5 -85.7C59 -74.6 58.2 -53.3 64.7 -37.3C71.2 -21.4 85.1 -10.7 99 0L0 0Z" fill="#1565c0"></path></g></svg>