<svg id="visual" viewBox="0 0 1960 1080" width="1960" height="1080" preserveAspectRatio="none" xmlns="http://www.w3.org/2000/svg" xmlns:xlink="http://www.w3.org/1999/xlink" version="1.1"><rect x="0" y="0" width="1960" height="1080" fill="#001220"></rect><defs><linearGradient id="grad1_0" x1="44.9%" y1="0%" x2="100%" y2="100%"><stop offset="13.703703703703702%" stop-color="#001220" stop-opacity="1"></stop><stop offset="86.2962962962963%" stop-color="#001220" stop-opacity="1"></stop></linearGradient></defs><defs><linearGradient id="grad2_0" x1="0%" y1="0%" x2="55.1%" y2="100%"><stop offset="13.703703703703702%" stop-color="#001220" stop-opacity="1"></stop><stop offset="86.2962962962963%" stop-color="#001220" stop-opacity="1"></stop></linearGradient></defs><g transform="translate(1960, 0)"><path d="M0 486C-68.9 484.4 -137.7 482.9 -186 449C-234.3 415.1 -261.9 348.9 -300.5 300.5C-339.1 252.1 -388.6 221.6 -421.3 174.5C-454 127.4 -470 63.7 -486 0L0 0Z" fill="#1565c0"></path></g><g transform="translate(0, 1080)"><path d="M0 -486C69 -478.2 138 -470.4 178.3 -430.5C218.7 -390.7 230.5 -318.8 277.9 -277.9C325.3 -237 408.4 -227.1 449 -186C489.6 -144.8 487.8 -72.4 486 0L0 0Z" fill="#1565c0"></path></g></svg>